<svg xmlns="http://www.w3.org/2000/svg" viewBox="0 0 128 128">
  <path fill="#666666" d="M64 8c-15.464 0-28 12.536-28 28 0 10.5 6.5 19.5 16 23.5v8.5c0 4.418 3.582 8 8 8h8c4.418 0 8-3.582 8-8v-8.5c9.5-4 16-13 16-23.5 0-15.464-12.536-28-28-28zm-12 28c0-6.627 5.373-12 12-12s12 5.373 12 12-5.373 12-12 12-12-5.373-12-12z"/>
  <ellipse cx="64" cy="82" rx="32" ry="12" fill="#666666"/>
  <path fill="#666666" d="M32 82v16c0 6.627 14.327 12 32 12s32-5.373 32-12V82c-6 5-17 8-32 8s-26-3-32-8z"/>
  <circle cx="70" cy="30" r="4" fill="#666666"/>
</svg>



